G04 #@! TF.GenerationSoftware,KiCad,Pcbnew,(5.1.5)-2*
G04 #@! TF.CreationDate,2020-04-02T11:08:13+02:00*
G04 #@! TF.ProjectId,TI-99_kbd,54492d39-395f-46b6-9264-2e6b69636164,rev?*
G04 #@! TF.SameCoordinates,Original*
G04 #@! TF.FileFunction,Copper,L1,Top*
G04 #@! TF.FilePolarity,Positive*
%FSLAX46Y46*%
G04 Gerber Fmt 4.6, Leading zero omitted, Abs format (unit mm)*
G04 Created by KiCad (PCBNEW (5.1.5)-2) date 2020-04-02 11:08:13*
%MOMM*%
%LPD*%
G04 APERTURE LIST*
%ADD10C,3.300000*%
%ADD11O,1.600000X1.600000*%
%ADD12R,1.600000X1.600000*%
%ADD13O,1.700000X1.700000*%
%ADD14R,1.700000X1.700000*%
%ADD15C,2.000000*%
%ADD16C,0.800000*%
%ADD17C,0.250000*%
G04 APERTURE END LIST*
D10*
X77260000Y-129180000D03*
X69260000Y-129180000D03*
X78860000Y-110180000D03*
X86860000Y-110180000D03*
D11*
X42990000Y-148190000D03*
D12*
X42990000Y-140570000D03*
D13*
X139420000Y-64180000D03*
X136880000Y-64180000D03*
X134340000Y-64180000D03*
X131800000Y-64180000D03*
X129260000Y-64180000D03*
X126720000Y-64180000D03*
X124180000Y-64180000D03*
X121640000Y-64180000D03*
X119100000Y-64180000D03*
X116560000Y-64180000D03*
X114020000Y-64180000D03*
X111480000Y-64180000D03*
X108940000Y-64180000D03*
X106400000Y-64180000D03*
D14*
X103860000Y-64180000D03*
D10*
X45710000Y-72180000D03*
X53710000Y-72180000D03*
X64710000Y-72180000D03*
X72710000Y-72180000D03*
X83710000Y-72180000D03*
X91710000Y-72180000D03*
X102710000Y-72180000D03*
X110710000Y-72180000D03*
X121710000Y-72180000D03*
X129710000Y-72180000D03*
X140710000Y-72180000D03*
X148710000Y-72180000D03*
X159710000Y-72180000D03*
X167710000Y-72180000D03*
X178710000Y-72180000D03*
X186710000Y-72180000D03*
X197710000Y-72180000D03*
X205710000Y-72180000D03*
X216710000Y-72180000D03*
X224710000Y-72180000D03*
X243710000Y-72180000D03*
X235710000Y-72180000D03*
X62860000Y-91180000D03*
X54860000Y-91180000D03*
X81860000Y-91180000D03*
X73860000Y-91180000D03*
X100860000Y-91180000D03*
X92860000Y-91180000D03*
X119860000Y-91180000D03*
X111860000Y-91180000D03*
X138860000Y-91180000D03*
X130860000Y-91180000D03*
X157860000Y-91180000D03*
X149860000Y-91180000D03*
X168860000Y-91180000D03*
X176860000Y-91180000D03*
X195860000Y-91180000D03*
X187860000Y-91180000D03*
X214860000Y-91180000D03*
X206860000Y-91180000D03*
X233860000Y-91180000D03*
X225860000Y-91180000D03*
X252860000Y-91180000D03*
X244860000Y-91180000D03*
X59860000Y-110180000D03*
X67860000Y-110180000D03*
X97860000Y-110180000D03*
X105860000Y-110180000D03*
X116860000Y-110180000D03*
X124860000Y-110180000D03*
X135860000Y-110180000D03*
X143860000Y-110180000D03*
X154860000Y-110180000D03*
X162860000Y-110180000D03*
X181860000Y-110180000D03*
X173860000Y-110180000D03*
X192860000Y-110180000D03*
X200860000Y-110180000D03*
X211860000Y-110180000D03*
X219860000Y-110180000D03*
X230860000Y-110180000D03*
X238860000Y-110180000D03*
X257860000Y-110180000D03*
X249860000Y-110180000D03*
X50260000Y-129180000D03*
X58260000Y-129180000D03*
X96260000Y-129180000D03*
X88260000Y-129180000D03*
X115260000Y-129180000D03*
X107260000Y-129180000D03*
X134260000Y-129180000D03*
X126260000Y-129180000D03*
X153260000Y-129180000D03*
X145260000Y-129180000D03*
X172260000Y-129180000D03*
X164260000Y-129180000D03*
X191270000Y-129180000D03*
X183270000Y-129180000D03*
X210260000Y-129180000D03*
X202260000Y-129180000D03*
X229260000Y-129180000D03*
X221260000Y-129180000D03*
X252760000Y-129180000D03*
X244760000Y-129180000D03*
X58260000Y-148180000D03*
X50260000Y-148180000D03*
X77260000Y-148180000D03*
X69260000Y-148180000D03*
X155160000Y-148180000D03*
X163160000Y-148180000D03*
X240860000Y-148180000D03*
X248860000Y-148180000D03*
D15*
X44310000Y-106720000D03*
X44310000Y-102220000D03*
X50810000Y-106720000D03*
X50810000Y-102220000D03*
X51030000Y-112750000D03*
X51030000Y-117250000D03*
X44530000Y-112750000D03*
X44530000Y-117250000D03*
D16*
X136420000Y-78840000D03*
X136210000Y-84140000D03*
X134860000Y-78530000D03*
X135060000Y-83100000D03*
X133610000Y-77390000D03*
X133920000Y-82170000D03*
X44080000Y-82360000D03*
X132670000Y-81320000D03*
X132050000Y-76430000D03*
X126370000Y-71690000D03*
X118610000Y-70410000D03*
X217850000Y-79570000D03*
X107510000Y-69130000D03*
X140850000Y-105450000D03*
X167570000Y-111700000D03*
X140340000Y-106570000D03*
X154170000Y-81340000D03*
X122820000Y-97420000D03*
D17*
X191270000Y-129180000D02*
X191270000Y-129080000D01*
X181860000Y-119670000D02*
X181860000Y-110180000D01*
X191270000Y-129080000D02*
X181860000Y-119670000D01*
X181860000Y-110180000D02*
X181860000Y-103560000D01*
X176860000Y-98560000D02*
X176860000Y-91180000D01*
X181860000Y-103560000D02*
X176860000Y-98560000D01*
X176860000Y-91180000D02*
X176860000Y-88530000D01*
X167710000Y-79380000D02*
X167710000Y-72180000D01*
X176860000Y-88530000D02*
X167710000Y-79380000D01*
X134260000Y-129180000D02*
X134260000Y-127590000D01*
X124860000Y-118190000D02*
X124860000Y-110180000D01*
X134260000Y-127590000D02*
X124860000Y-118190000D01*
X124860000Y-110180000D02*
X124860000Y-104400000D01*
X119860000Y-99400000D02*
X119860000Y-91180000D01*
X124860000Y-104400000D02*
X119860000Y-99400000D01*
X119860000Y-91180000D02*
X119860000Y-90310000D01*
X110710000Y-81160000D02*
X110710000Y-72180000D01*
X119860000Y-90310000D02*
X110710000Y-81160000D01*
X136420000Y-78840000D02*
X136210000Y-79050000D01*
X136210000Y-79050000D02*
X136210000Y-84140000D01*
X210260000Y-129180000D02*
X210260000Y-127580000D01*
X200860000Y-118180000D02*
X200860000Y-110180000D01*
X210260000Y-127580000D02*
X200860000Y-118180000D01*
X200860000Y-110180000D02*
X200860000Y-106320000D01*
X195860000Y-101320000D02*
X195860000Y-91180000D01*
X200860000Y-106320000D02*
X195860000Y-101320000D01*
X195860000Y-91180000D02*
X195860000Y-88730000D01*
X186710000Y-79580000D02*
X186710000Y-72180000D01*
X195860000Y-88730000D02*
X186710000Y-79580000D01*
X115260000Y-129180000D02*
X115260000Y-126050000D01*
X105860000Y-116650000D02*
X105860000Y-110180000D01*
X115260000Y-126050000D02*
X105860000Y-116650000D01*
X105860000Y-110180000D02*
X105860000Y-106230000D01*
X100860000Y-101230000D02*
X100860000Y-91180000D01*
X105860000Y-106230000D02*
X100860000Y-101230000D01*
X100860000Y-91180000D02*
X100860000Y-90050000D01*
X91710000Y-80900000D02*
X91710000Y-72180000D01*
X100860000Y-90050000D02*
X91710000Y-80900000D01*
X134860000Y-78530000D02*
X135060000Y-78730000D01*
X135060000Y-78730000D02*
X135060000Y-83100000D01*
X229260000Y-129180000D02*
X229260000Y-125350000D01*
X219860000Y-115950000D02*
X219860000Y-110180000D01*
X229260000Y-125350000D02*
X219860000Y-115950000D01*
X219860000Y-110180000D02*
X219860000Y-105070000D01*
X214860000Y-100070000D02*
X214860000Y-91180000D01*
X219860000Y-105070000D02*
X214860000Y-100070000D01*
X214860000Y-91180000D02*
X214860000Y-88630000D01*
X205710000Y-79480000D02*
X205710000Y-72180000D01*
X214860000Y-88630000D02*
X205710000Y-79480000D01*
X96260000Y-129180000D02*
X96260000Y-127740000D01*
X86860000Y-118340000D02*
X86860000Y-110180000D01*
X96260000Y-127740000D02*
X86860000Y-118340000D01*
X86860000Y-110180000D02*
X86860000Y-106060000D01*
X81860000Y-101060000D02*
X81860000Y-91180000D01*
X86860000Y-106060000D02*
X81860000Y-101060000D01*
X81860000Y-91180000D02*
X81860000Y-90940000D01*
X72710000Y-81790000D02*
X72710000Y-72180000D01*
X81860000Y-90940000D02*
X72710000Y-81790000D01*
X133610000Y-77390000D02*
X133920000Y-77700000D01*
X133920000Y-77700000D02*
X133920000Y-82170000D01*
X205710000Y-72180000D02*
X205710000Y-70680000D01*
X205710000Y-70680000D02*
X203810000Y-68780000D01*
X203810000Y-68780000D02*
X135740000Y-68780000D01*
X134340000Y-67380000D02*
X134340000Y-64180000D01*
X135740000Y-68780000D02*
X134340000Y-67380000D01*
X77260000Y-148180000D02*
X145160000Y-148180000D01*
X145160000Y-148180000D02*
X148910000Y-151930000D01*
X159410000Y-151930000D02*
X163160000Y-148180000D01*
X148910000Y-151930000D02*
X159410000Y-151930000D01*
X163160000Y-148180000D02*
X230770000Y-148180000D01*
X230770000Y-148180000D02*
X234760000Y-152170000D01*
X244870000Y-152170000D02*
X248860000Y-148180000D01*
X234760000Y-152170000D02*
X244870000Y-152170000D01*
X248860000Y-148180000D02*
X248860000Y-141140000D01*
X252760000Y-137240000D02*
X252760000Y-129180000D01*
X248860000Y-141140000D02*
X252760000Y-137240000D01*
X252760000Y-129180000D02*
X252760000Y-120280000D01*
X257860000Y-115180000D02*
X257860000Y-110180000D01*
X252760000Y-120280000D02*
X257860000Y-115180000D01*
X257860000Y-110180000D02*
X257860000Y-104640000D01*
X257860000Y-104640000D02*
X256480000Y-103260000D01*
X256480000Y-103260000D02*
X256480000Y-89130000D01*
X256480000Y-89130000D02*
X254480000Y-87130000D01*
X254480000Y-87130000D02*
X250010000Y-87130000D01*
X250010000Y-87130000D02*
X248350000Y-85470000D01*
X248350000Y-85470000D02*
X248350000Y-73580000D01*
X246950000Y-72180000D02*
X243710000Y-72180000D01*
X248350000Y-73580000D02*
X246950000Y-72180000D01*
X77260000Y-148180000D02*
X77260000Y-150860000D01*
X77260000Y-150860000D02*
X74650000Y-153470000D01*
X74650000Y-153470000D02*
X67440000Y-153470000D01*
X67440000Y-153470000D02*
X64050000Y-150080000D01*
X64050000Y-150080000D02*
X64050000Y-131850000D01*
X61380000Y-129180000D02*
X58260000Y-129180000D01*
X64050000Y-131850000D02*
X61380000Y-129180000D01*
X58260000Y-129180000D02*
X58260000Y-126700000D01*
X58260000Y-126700000D02*
X52520000Y-120960000D01*
X52520000Y-120960000D02*
X44040000Y-120960000D01*
X44040000Y-120960000D02*
X41550000Y-118470000D01*
X77260000Y-148180000D02*
X77260000Y-147820000D01*
X41550000Y-84890000D02*
X44080000Y-82360000D01*
X132670000Y-81320000D02*
X132670000Y-77050000D01*
X132670000Y-77050000D02*
X132050000Y-76430000D01*
X44560000Y-106970000D02*
X44310000Y-106720000D01*
X44310000Y-106720000D02*
X50810000Y-106720000D01*
X51060000Y-112720000D02*
X44560000Y-112720000D01*
X126260000Y-129180000D02*
X126260000Y-131460000D01*
X126260000Y-131460000D02*
X128970000Y-134170000D01*
X128970000Y-134170000D02*
X138480000Y-134170000D01*
X138480000Y-134170000D02*
X140450000Y-132200000D01*
X140450000Y-132200000D02*
X140450000Y-109300000D01*
X140450000Y-109300000D02*
X143390000Y-106360000D01*
X143390000Y-106360000D02*
X143390000Y-103770000D01*
X143390000Y-103770000D02*
X134990000Y-95370000D01*
X134990000Y-95370000D02*
X134990000Y-86210000D01*
X134990000Y-86210000D02*
X126370000Y-77590000D01*
X126370000Y-77590000D02*
X126370000Y-71690000D01*
X44310000Y-102220000D02*
X50810000Y-102220000D01*
X50810000Y-102220000D02*
X51810000Y-102220000D01*
X51810000Y-102220000D02*
X56900000Y-107310000D01*
X56900000Y-107310000D02*
X56900000Y-121050000D01*
X65030000Y-129180000D02*
X69260000Y-129180000D01*
X56900000Y-121050000D02*
X65030000Y-129180000D01*
X118610000Y-70410000D02*
X117980000Y-71040000D01*
X117980000Y-71040000D02*
X117980000Y-80730000D01*
X128430000Y-91180000D02*
X130860000Y-91180000D01*
X117980000Y-80730000D02*
X128430000Y-91180000D01*
X172260000Y-129180000D02*
X172260000Y-129790000D01*
X172260000Y-129790000D02*
X168480000Y-133570000D01*
X157650000Y-133570000D02*
X153260000Y-129180000D01*
X168480000Y-133570000D02*
X157650000Y-133570000D01*
X162860000Y-110180000D02*
X162860000Y-111360000D01*
X162860000Y-111360000D02*
X159020000Y-115200000D01*
X148880000Y-115200000D02*
X143860000Y-110180000D01*
X159020000Y-115200000D02*
X148880000Y-115200000D01*
X153260000Y-129180000D02*
X153260000Y-124140000D01*
X148880000Y-119760000D02*
X148880000Y-115200000D01*
X153260000Y-124140000D02*
X148880000Y-119760000D01*
X143860000Y-110180000D02*
X143860000Y-103510000D01*
X138860000Y-98510000D02*
X138860000Y-91180000D01*
X143860000Y-103510000D02*
X138860000Y-98510000D01*
X157860000Y-91180000D02*
X157860000Y-92320000D01*
X157860000Y-92320000D02*
X153330000Y-96850000D01*
X144530000Y-96850000D02*
X138860000Y-91180000D01*
X153330000Y-96850000D02*
X144530000Y-96850000D01*
X138860000Y-91180000D02*
X138860000Y-89140000D01*
X129710000Y-79990000D02*
X129710000Y-72180000D01*
X138860000Y-89140000D02*
X129710000Y-79990000D01*
X148710000Y-72180000D02*
X148710000Y-74310000D01*
X148710000Y-74310000D02*
X144930000Y-78090000D01*
X135620000Y-78090000D02*
X129710000Y-72180000D01*
X144930000Y-78090000D02*
X135620000Y-78090000D01*
X124180000Y-64180000D02*
X124180000Y-68190000D01*
X128170000Y-72180000D02*
X129710000Y-72180000D01*
X124180000Y-68190000D02*
X128170000Y-72180000D01*
X238860000Y-110180000D02*
X238860000Y-102190000D01*
X233860000Y-97190000D02*
X233860000Y-91180000D01*
X238860000Y-102190000D02*
X233860000Y-97190000D01*
X233860000Y-91180000D02*
X233860000Y-89570000D01*
X224710000Y-80420000D02*
X224710000Y-72180000D01*
X233860000Y-89570000D02*
X224710000Y-80420000D01*
X77260000Y-129180000D02*
X77260000Y-128040000D01*
X67860000Y-118640000D02*
X67860000Y-110180000D01*
X77260000Y-128040000D02*
X67860000Y-118640000D01*
X67860000Y-110180000D02*
X67860000Y-103720000D01*
X62860000Y-98720000D02*
X62860000Y-91180000D01*
X67860000Y-103720000D02*
X62860000Y-98720000D01*
X62860000Y-91180000D02*
X62860000Y-88580000D01*
X53710000Y-79430000D02*
X53710000Y-72180000D01*
X62860000Y-88580000D02*
X53710000Y-79430000D01*
X238860000Y-102190000D02*
X246050000Y-102190000D01*
X252860000Y-95380000D02*
X252860000Y-91180000D01*
X246050000Y-102190000D02*
X252860000Y-95380000D01*
X121640000Y-64180000D02*
X121640000Y-62760000D01*
X121640000Y-62760000D02*
X120690000Y-61810000D01*
X120690000Y-61810000D02*
X59450000Y-61810000D01*
X53710000Y-67550000D02*
X53710000Y-72180000D01*
X59450000Y-61810000D02*
X53710000Y-67550000D01*
X121640000Y-64180000D02*
X121640000Y-63070000D01*
X121640000Y-63070000D02*
X123240000Y-61470000D01*
X123240000Y-61470000D02*
X220160000Y-61470000D01*
X224710000Y-66020000D02*
X224710000Y-72180000D01*
X220160000Y-61470000D02*
X224710000Y-66020000D01*
X58260000Y-148180000D02*
X56900000Y-148180000D01*
X56900000Y-148180000D02*
X53280000Y-144560000D01*
X53280000Y-144560000D02*
X42030000Y-144560000D01*
X42030000Y-144560000D02*
X40930000Y-143460000D01*
X40930000Y-76960000D02*
X45710000Y-72180000D01*
X40930000Y-143460000D02*
X40930000Y-76960000D01*
X217850000Y-79570000D02*
X217850000Y-87520000D01*
X217850000Y-87520000D02*
X221180000Y-90850000D01*
X221180000Y-90850000D02*
X221180000Y-100970000D01*
X221180000Y-100970000D02*
X225520000Y-105310000D01*
X225520000Y-105310000D02*
X225520000Y-113260000D01*
X225520000Y-113260000D02*
X235640000Y-123380000D01*
X235640000Y-123380000D02*
X235640000Y-140590000D01*
X240860000Y-145810000D02*
X240860000Y-148180000D01*
X235640000Y-140590000D02*
X240860000Y-145810000D01*
X102710000Y-72180000D02*
X104460000Y-72180000D01*
X104460000Y-72180000D02*
X107510000Y-69130000D01*
X167570000Y-111700000D02*
X167570000Y-125140000D01*
X164260000Y-128450000D02*
X164260000Y-129180000D01*
X167570000Y-125140000D02*
X164260000Y-128450000D01*
X132370000Y-105450000D02*
X140850000Y-105450000D01*
X126570000Y-99650000D02*
X132370000Y-105450000D01*
X114020000Y-68010000D02*
X115490000Y-69480000D01*
X126570000Y-89980000D02*
X126570000Y-99650000D01*
X114020000Y-64180000D02*
X114020000Y-68010000D01*
X115490000Y-69480000D02*
X115490000Y-78900000D01*
X115490000Y-78900000D02*
X126570000Y-89980000D01*
X155160000Y-148180000D02*
X155160000Y-144570000D01*
X155160000Y-144570000D02*
X157700000Y-142030000D01*
X157700000Y-142030000D02*
X171450000Y-142030000D01*
X171450000Y-142030000D02*
X177370000Y-136110000D01*
X177370000Y-136110000D02*
X177370000Y-119920000D01*
X173860000Y-116410000D02*
X173860000Y-110180000D01*
X177370000Y-119920000D02*
X173860000Y-116410000D01*
X111480000Y-64180000D02*
X111480000Y-66240000D01*
X111480000Y-66240000D02*
X114910000Y-69670000D01*
X114910000Y-69670000D02*
X114910000Y-79000000D01*
X114910000Y-79000000D02*
X126040000Y-90130000D01*
X126040000Y-90130000D02*
X126040000Y-99800000D01*
X126040000Y-99800000D02*
X132810000Y-106570000D01*
X132810000Y-106570000D02*
X140340000Y-106570000D01*
X59860000Y-110180000D02*
X59860000Y-111110000D01*
X108940000Y-64180000D02*
X108940000Y-70360000D01*
X108940000Y-70360000D02*
X107440000Y-71860000D01*
X107440000Y-71860000D02*
X107440000Y-104530000D01*
X113090000Y-110180000D02*
X116860000Y-110180000D01*
X107440000Y-104530000D02*
X113090000Y-110180000D01*
X154170000Y-81340000D02*
X154700000Y-81340000D01*
X159710000Y-76330000D02*
X159710000Y-72180000D01*
X154700000Y-81340000D02*
X159710000Y-76330000D01*
X44560000Y-117220000D02*
X51060000Y-117220000D01*
X42660000Y-117250000D02*
X41570000Y-118340000D01*
X44530000Y-117250000D02*
X42660000Y-117250000D01*
X41550000Y-118470000D02*
X41570000Y-118340000D01*
X41570000Y-118340000D02*
X41550000Y-113310000D01*
X42220000Y-106720000D02*
X41550000Y-107390000D01*
X44310000Y-106720000D02*
X42220000Y-106720000D01*
X41550000Y-113310000D02*
X41550000Y-107390000D01*
X41550000Y-107390000D02*
X41550000Y-84890000D01*
X122820000Y-97420000D02*
X122820000Y-87546410D01*
X122820000Y-87546410D02*
X114459990Y-79186400D01*
X114459990Y-79186400D02*
X114459990Y-69856400D01*
X114459990Y-69856400D02*
X111233590Y-66630000D01*
X111233590Y-66630000D02*
X110990000Y-66630000D01*
X110990000Y-66630000D02*
X110210000Y-65850000D01*
X110210000Y-65850000D02*
X110210000Y-63200000D01*
X110210000Y-63200000D02*
X109710000Y-62700000D01*
X109710000Y-62700000D02*
X106610000Y-62700000D01*
X106400000Y-62910000D02*
X106400000Y-64180000D01*
X106610000Y-62700000D02*
X106400000Y-62910000D01*
M02*
