M48
; DRILL file {KiCad (5.1.5)-2} date 2020-04-02 11:08:18
; FORMAT={-:-/ absolute / metric / decimal}
; #@! TF.CreationDate,2020-04-02T11:08:18+02:00
; #@! TF.GenerationSoftware,Kicad,Pcbnew,(5.1.5)-2
; #@! TF.FileFunction,Plated,1,2,PTH
FMAT,2
METRIC
T1C0.400
T2C0.800
T3C1.000
T4C1.100
T5C2.000
%
G90
G05
T1
X44.08Y-82.36
X107.51Y-69.13
X118.61Y-70.41
X122.82Y-97.42
X126.37Y-71.69
X132.05Y-76.43
X132.67Y-81.32
X133.61Y-77.39
X133.92Y-82.17
X134.86Y-78.53
X135.06Y-83.1
X136.21Y-84.14
X136.42Y-78.84
X140.34Y-106.57
X140.85Y-105.45
X154.17Y-81.34
X167.57Y-111.7
X217.85Y-79.57
T2
X42.99Y-140.57
X42.99Y-148.19
T3
X103.86Y-64.18
X106.4Y-64.18
X108.94Y-64.18
X111.48Y-64.18
X114.02Y-64.18
X116.56Y-64.18
X119.1Y-64.18
X121.64Y-64.18
X124.18Y-64.18
X126.72Y-64.18
X129.26Y-64.18
X131.8Y-64.18
X134.34Y-64.18
X136.88Y-64.18
X139.42Y-64.18
T4
X44.31Y-102.22
X44.31Y-106.72
X50.81Y-102.22
X50.81Y-106.72
X44.53Y-112.75
X44.53Y-117.25
X51.03Y-112.75
X51.03Y-117.25
T5
X183.27Y-129.18
X191.27Y-129.18
X240.86Y-148.18
X248.86Y-148.18
X192.86Y-110.18
X200.86Y-110.18
X197.71Y-72.18
X205.71Y-72.18
X173.86Y-110.18
X181.86Y-110.18
X135.86Y-110.18
X143.86Y-110.18
X83.71Y-72.18
X91.71Y-72.18
X211.86Y-110.18
X219.86Y-110.18
X244.76Y-129.18
X252.76Y-129.18
X97.86Y-110.18
X105.86Y-110.18
X102.71Y-72.18
X110.71Y-72.18
X126.26Y-129.18
X134.26Y-129.18
X59.86Y-110.18
X67.86Y-110.18
X88.26Y-129.18
X96.26Y-129.18
X154.86Y-110.18
X162.86Y-110.18
X155.16Y-148.18
X163.16Y-148.18
X202.26Y-129.18
X210.26Y-129.18
X69.26Y-148.18
X77.26Y-148.18
X225.86Y-91.18
X233.86Y-91.18
X178.71Y-72.18
X186.71Y-72.18
X116.86Y-110.18
X124.86Y-110.18
X244.86Y-91.18
X252.86Y-91.18
X159.71Y-72.18
X167.71Y-72.18
X78.86Y-110.18
X86.86Y-110.18
X50.26Y-148.18
X58.26Y-148.18
X168.86Y-91.18
X176.86Y-91.18
X64.71Y-72.18
X72.71Y-72.18
X107.26Y-129.18
X115.26Y-129.18
X140.71Y-72.18
X148.71Y-72.18
X216.71Y-72.18
X224.71Y-72.18
X221.26Y-129.18
X229.26Y-129.18
X164.26Y-129.18
X172.26Y-129.18
X130.86Y-91.18
X138.86Y-91.18
X206.86Y-91.18
X214.86Y-91.18
X69.26Y-129.18
X77.26Y-129.18
X187.86Y-91.18
X195.86Y-91.18
X45.71Y-72.18
X53.71Y-72.18
X249.86Y-110.18
X257.86Y-110.18
X92.86Y-91.18
X100.86Y-91.18
X111.86Y-91.18
X119.86Y-91.18
X50.26Y-129.18
X58.26Y-129.18
X54.86Y-91.18
X62.86Y-91.18
X145.26Y-129.18
X153.26Y-129.18
X230.86Y-110.18
X238.86Y-110.18
X73.86Y-91.18
X81.86Y-91.18
X235.71Y-72.18
X243.71Y-72.18
X121.71Y-72.18
X129.71Y-72.18
X149.86Y-91.18
X157.86Y-91.18
T0
M30
